<svg id="Layer_1" data-name="Layer 1" xmlns="http://www.w3.org/2000/svg" viewBox="0 0 500 500"><defs><style>.cls-1{fill:none;}</style></defs><title>Untitled-2</title><rect class="cls-1" width="500" height="500"/><path d="M324.73,150.77c3.85,4.37,4.38,9.62,3.33,15-.77,3.89-2.35,7.61-3.72,11.89,11.36,1.47,23.27,2.45,30,14l12.4-2.56c-3.43,4.18-7.27,3.82-11.66,3.9,4.76,6.08,5.76,12.93,6.9,19.73-3.43-4.15-7.09-8.21-6.38-14.32-1.72-3.39-5.58-5.55-6-9.77-8.14-5.66-16.87-8.49-21.79-7l3.48,1.57-.17.58H324.3l6,2.87-2.37.89c6.78,5.12,15.32,7.55,20.76,14.55-8.86-5.74-18.71-9-29.44-12.91,2,2.42,3.23,4,4.4,5.41l-.56,2.72c12.68,11.16,20.48,24.78,24.5,40.7a26.54,26.54,0,0,0,2.29,5.23c3.7,7.47,5.51,15.26,3.55,23.75q-1.12-5.86-2.24-11.74a7.68,7.68,0,0,0-.7,3.51,22.48,22.48,0,0,1-.48,2.68l-1.18.12c-.7-14.11-2.21-27.91-9.77-40.32-7.44-12.21-16.06-23.07-28.24-30.82l-4.51,11.21L302.52,205l-1.13-1L296.15,209c.17,3.75.34,7.63.54,12.22l2.4-3.4,1.82,5.2-.14-.12c.21,2.6.42,5.2.75,9.2l-3.84-7.16-1.7-.19c-3.33-5,.48-10.25-2.77-15.77-.7,6.66-1.34,12.14-.75,15.36l12.69,18.28c1.32.47,2.74.61,3.63,1.37,2.3,2,4.39,4.17,6.5,6.33s3.92,4.75,6.29,6.58a54.15,54.15,0,0,1,16.37,20.66c2.41,2.7,4.5,5.06,6.64,7.45L356,275.63l6.11-11.37c6-17,3-33.88-2.27-50.3l2.09-1.45c.76,2.45,1.72,4.87,2.23,7.37,1.26,6.14,3.06,12.3,3.2,18.48.11,4.56.39,9.09.6,13.64.32,7-3,12.92-6.1,18.88-3.86,7.5-10.64,12.44-16.36,18.82-4.2-4.69-10.18-7.74-11-13.89-2.38-3.06-4.25-5.44-6.32-8.09l-1.06.22-8.79-10.67-4.19,1a7.32,7.32,0,0,0-.34,1.46c-.53,16.53-1,33.06-1.57,49.59-.64,17.67-1.48,35.34-2.17,53-1.19,30.54-2.29,61.09-3.5,91.64-.36,9-4.34,12.69-13.45,12.7-35.1,0-70.21-.16-105.32.11-10.94.08-13.43-5.46-13.87-13.56-.39-7.29-.69-14.59-.94-21.89-.85-25-1.62-50-2.5-75-.78-22.29-1.68-44.58-2.51-66.86q-1.64-43.82-3.26-87.61c-.07-1.9,0-3.81,0-5.09,2.35-4.05,5.64-4,9-4,20.52,0,41,.07,61.58,0,4.16,0,8.32-.55,12.79-.87l-.76-2.62,7.9-5.22c-.47-.84-1-1.79-1.48-2.69-4.76-1.56-4.76-1.56-11.11-10,4.36-.2,5.37,3.06,6.53,5.76l11.87,4.6c-.63.86-1.18,1.59-2.4,3.23l21.62-1.59-.65-2.08,6-.32-4.91-3.27,10.25,1.37-4.82-4.3h4.68c.17-2.46-2.35-3.09-3.54-5.08l4.93-.7,11.68-11.5-.65-.8L299.84,158c.24-3.38,1.09-6.63.51-9.6s-2.6-5.91-4.28-9.48l-8.75-4.28a1.15,1.15,0,0,1-.28-.52l3.93-1.86,29.6-91.39c5-1.14,8.73-.09,11.95,4.55C322.36,76.5,312,107.93,301.09,140c4.28,4.49,8.75,9.16,13.74,14.38l8.12-3.26c-2.15,3.54-6.06,4.33-9.36,6.1-3.65,2-7.22,4.06-10.83,6.1l-2.63.9-3.31,3c.19,2.24.36,4.28.49,5.77l6.07,10.8-9.35-.64-1.23,1.65c-1.71.76-3.39,1.59-5.13,2.26-2.52,1-5.07,1.85-7.61,2.77-2.93,1.58-3.9,4.42-3.63,7.91.29,3.79.21,7.61.29,11.41-4.3-7.24-3.85-14.4.65-21.53-7.14-1.12-14-3.18-20.07-.18-2.93,4.07-5.46,7.44-9.61,9l-5.76,5c-1.66,1.6-1.83,4.54-5.25,5.42.6-2.48,1.09-4.53,1.74-7.25H225.26c2.51-.84,5-.66,7.48-.9,2.21-.21,4.89,1,6.92-1.68-17.45-2.95-34.25,2.45-51.14,1-1.52,5.36-.65,38.21,1,43.89l65.57,1.22c1.58-5.65,4.07-10.76,5.16-16.77l-10.62,3.07c1.73-6.54,6.76-7.17,10.38-9.59l1.12,2.25,5.82-4.37.64.75q-1.32,2.16-2.63,4.32l-8,20.05c5,1.29,5,1.29,8.25-.73l-2.29-2.6c1.87-4.79,2.13-10.53,7.09-14.12.56-.4.43-1.76.63-2.67,4.1-.52,5.85-4.06,8.4-6.58.09,1.19.19,2.39.39,5l4.16-7.28-4.09,1.21.36-2.53c-2,2.09-3.49,3.47-4.81,5-1.49,1.71-2.85,3.55-4.27,5.33-2,1-4,2.39-6-.17l8.59-5c1.35-3.69,2.26-6.17,3.16-8.65l3.05-1.51c2.16-8.95,5.78-16.95,13.06-22.82.31.47.95,1,.87,1.41-.87,4.14-1.85,8.25-2.94,13l-2.09-5.59c-2.77,2.53-3.83,5.35-3,9.54l-4.3,2.45.72,1.1,13.49-4.39-1.78-2,6.67-7.77.92,3.67,1.58-1.93-3.35-6.24,1.13-3.3,4.88,1.18c2.46-5.94,7.1-9.3,11.82-12.68l-2.43,5,6.27-1.64c1.67-2.51,3.74-5.53,4-9.78l-2.12,1.22C323.65,162.12,324.19,156.45,324.73,150.77ZM195.91,323.23c2.44,5.69,7.54,7.95,12.81,10l1.76-.2a30.14,30.14,0,0,0,3.42,1.79c1.7.63,3.47,1.06,5.21,1.57l-.23.71-3.6.48c5.11,2.19,8.93,2.58,13.2,1.47-.57-.77-1.15-1.54-1.57-2.09l16.68-5.18.3.76-6.48,4.73c5.58-.66,9.91-.94,12.8-4.79a17.73,17.73,0,0,1,1.86-4.35c4.32-6.55,7.76-13.29,6-21.54a10.66,10.66,0,0,1,.13-2.86l-.13.1,3.36,8.86c.12-3.19-.38-6.37-.52-9.56-.3-6.89-.34-13.78-.64-20.67-.15-3.43-.56-3.85-3.94-6.61,3.33,9.11,3.58,11,1.8,16.76A42.17,42.17,0,0,0,248.36,269c-2.94-2.31-6.1-4.79-9.25-7.29-3.73-3-6.5-3.86-11.69-3.65,6.33,1.79,9.16,3.56,12.07,7.81l-19.12-8.65-7.57.78c13.62,10.1,14.55,11.3,14.66,19.17l-13.67-10.82.39-.54,5.21,1.79c-5.1-4.26-10.58-7.17-18.58-5.7a52.45,52.45,0,0,1-4.68,5.47,20.79,20.79,0,0,0-6.51,12.47c-.28,1.74-1.43,3.33-2.68,6.07v30.46l5.55,6.19,3.6.85Zm82.86-10.46.13.11q.77-24.19,1.54-48.39c0-.93-.08-1.86-.13-2.79l-1.14,0c-3.62,13.67-2.2,27.95-5.06,41.77l1.06-25.2-1.18-.16q-4.08,12.41-8.14,24.79l3.83,1.61c2.15,3.87.89,7.51.37,11.05a21.72,21.72,0,0,0,1.13,11.27c1.49,3.88,2.14,8.09,3.33,12.88l7.73,4.13c1.13-32.33,2.24-64,3.34-95.65-1.33.48-1.85,1.08-1.92,1.74-.42,3.82-.86,7.64-1.08,11.47-.89,15.92-1.67,31.84-2.58,47.76A14.55,14.55,0,0,1,278.77,312.77ZM222.64,362.5l-6.24,2.7-2.56-1.42-1.16-4.48c-5.47,6.45-3.49,12.48-.92,19.37l3.51-5.83c-1.5,12.25.58,20.78,6.78,27.49-1.05-4.92-4.15-8.89-2.86-13.85l6,5.83,1.27-2.21,2,3.38c5.35,2,7.78,6.17,11.95,8.68l-3.27,2.48-8.32-5.43-2.36,1.46c1.72,4.38,3.28,8.38,4.93,12.57,4.57,1.34,8.85-1.41,13.53-2.3L238,415.59l-9,.47c-.2,1.05-.36,1.85-.62,3.19h28.57a180.84,180.84,0,0,1-39,.44c.22-3.23.4-6,.59-8.89l-3.18-1.92V394.55l-4.81,3.37c-2.83-2.48-3.49-5.38-3.92-8.14-1.14-7.37-4.67-13.84-7.8-20.36-2.19-4.54-4-9.06-2.84-13.77,1.43-6,.47-11.77-.2-17.62-.38-3.39-1.15-6.75-1.85-10.78l-6.2-6v35.41h-.24q-1-19-2-38l-1.06,0v26.28c-1.08-8.7-1.64-17.4-2.14-26.11-.17-2.79-.51-5.4-4.43-6.31,0,5.39-.23,10.54.05,15.65.88,16.11,2,32.21,2.94,48.32a119.48,119.48,0,0,0,4.53,26.06c3.17,11,10.26,17.73,21.48,19.91,3.35.65,6.78.85,10.18,1.22a56.41,56.41,0,0,1,6.27.65,80.75,80.75,0,0,0,33.13.27,26.15,26.15,0,0,1,6.81-.85c4.73.38,9.1-.89,13.52-2.13a24.57,24.57,0,0,0,16.82-15.17c3.56-8.78,5.14-18.12,5.87-27.49,1.14-14.55,1.65-29.16,2.44-43.75.33-6.12.91-12.25,1-18.38,0-4.37-.83-8.75-.87-13.13,0-3.44.66-6.87.91-10.32.77-10.93,1.58-21.87,2.19-32.81.25-4.53,0-9.1,0-14.22l-5.67.42c-.77,10-1.49,19.51-2.22,29-.64-4.84-.3-9.63-.26-14.42,0-4.6.76-9.29-.9-13.85A4.05,4.05,0,0,0,295,250c-.86,17.87-1.65,35.74-2.54,53.6a63.53,63.53,0,0,1-1,6.55c-.66-7-.3-13.93-.08-20.83q.34-10.68.45-21.36c.07-6.63,0-13.26,0-19.89a16.8,16.8,0,0,0-1.08,5.51c-.49,9.59-1.05,19.19-1.41,28.78-.55,14.79-.95,29.57-1.43,44.36,0,1.59-.14,3.17-.22,4.76-.77-15,0-29.93-1.38-44.85-.88,19.75-1.77,39.49-2.65,59.06a19.21,19.21,0,0,0,1.61,2c6.35,6,9.7,13.66,11.67,22,1.25,5.3.82,10.39-2.48,14.86-3.17,4.28-6.3,8.69-9.65,12.7-6,7.2-13.7,12.87-23.06,15.5-4.42,1.24-8.91,2.21-13.37,3.28-1.94.47-3.91,1-5.94-.51,9.18-1.16,16.09-6.7,23.43-11.4a5.07,5.07,0,0,1,2.06-1c4.6-.41,7.48-3.59,10.56-6.45,1.67-1.55,3.31-3.14,4.92-4.67,1.81-7.29,3.62-14.54,5.58-22.39-.11-.88-.3-2.42-.59-4.71,3.54,5.38,3.54,5.38,3.65,18.77,5.38-6.32,1.7-12.74.94-18.36l-9.23-8-1.51.44.14.13c-.94-3.4-1.88-6.8-2.84-10.29l.68-1.48-3.45-2.82c-9.13-2.35-16.83-.79-24.19,3-.17.09-.58-.29-1.57-.83l4.29-2.29-.92-1a240.56,240.56,0,0,0-31.9,20.34Zm80.69,85.77c-.26-3-.17-5.56-.76-7.95-1.44-5.8-.4-11.38.53-17.09a114.93,114.93,0,0,0,1.21-16c.12-6.12-.94-12.35-.16-18.36a249.87,249.87,0,0,0,2.51-28.63c.1-7.5,1.19-15,.6-22.48-.71-8.91.14-17.59,1-26.39.76-7.82.59-15.74.75-23.61.07-3.83-.21-7.67-.06-11.5.3-7.28.85-14.56,1.15-21.84a23.48,23.48,0,0,0-.76-4.7,4.21,4.21,0,0,0-1.55,3.17c-.75,8.8-1.54,17.61-2.19,26.43-.4,5.53-.75,11.08-.83,16.63-.05,3.24.76,6.49.7,9.73q-.39,21.91-1.13,43.82c-.15,4.21-.86,8.41-1.38,12.6-.56,4.57-1.25,9.12-1.8,13.69-.49,4-.88,8-1.29,12-.24,2.28-1.33,5-.47,6.75,1.68,3.4.31,6-1,8.66a140.54,140.54,0,0,1-7,12.6A20.78,20.78,0,0,1,279,425.46c-6.27,1.66-12.53,3.14-19.15,3.38-8.8.32-17.54.93-26.39.43-9.92-.56-19.81-.41-29.55-3.1-7.3-2-12.74-6-16.46-12.48-1.24-2.16-2.33-4.42-3.62-6.56-2.54-4.21-4.46-8.5-3-13.63a9.44,9.44,0,0,0-.12-3.42c-1.43-12-3.54-24-4.17-36-1-18.61-.94-37.28-1.24-55.93,0-2.28.81-4.59.66-6.85-.59-8.63-1.63-17.22-2.13-25.85-.91-15.73-1.59-31.47-2.31-47.21a38.93,38.93,0,0,1,.34-4.69c3.41,9.88,1.66,20.11,2.74,30.51l3.67-.89c-.74-14.75-1.48-29.22-2.25-44.44L171,201.06l-.34-.65c1.33-1.19,2.67-2.37,4.66-4.13l-6.26.47a157.18,157.18,0,0,0-.06,28.69c.86,8.39,2.13,16.89,1.56,25.23a80.51,80.51,0,0,0,.66,19.39,18.41,18.41,0,0,1,.17,2.88c.1,8.63,0,17.26.32,25.89.26,8.05,1.09,16.09,1.33,24.15.51,16.72.77,33.44,1.2,50.17a35.74,35.74,0,0,0,.85,6.83c2.06,9.12,2,18.38,1.07,27.54a45.66,45.66,0,0,0,1,15.34c1.37,5.77,2.33,11.61.81,17.67a17.28,17.28,0,0,0,1.85,13.57c6.75,6.37,15.08,9.11,24.43,9q22.71-.19,45.43-.46c.95,0,1.9-.22,2.86-.25,4.57-.17,9.16-.53,13.73-.4,5.38.15,10.76.73,16.14,1.13l0-.67-3.52-1.07.12-1h18.1C299.37,456.07,301.44,452,303.33,448.27Zm-32-201.72c-2.47-.17-4.14-.32-5.82-.39q-7.47-.3-14.93-.56c-16.64-.6-33.28-1.28-49.93-1.71-3.75-.09-7.53.72-11.16,1.1-1,6.61-.33,22.57,1.14,25.52.24-2.44.32-4.67.71-6.84A39.88,39.88,0,0,1,193,257c2-5.63,6.26-8.47,12.27-8.64s10.83,1.84,14.29,6.83c17.57-1.85,30.68,6.54,43,18C265.42,264.36,268.27,255.73,271.3,246.55ZM330.52,44.88l-7.77-3.09a60.79,60.79,0,0,0-2.33,5.91c-4.49,16.42-11,32.18-14.22,49.06-2.27,11.73-7.56,22.88-11.51,34.28-.41,1.2-.92,2.37-1.48,3.8l6.26,3.18,4.79-13.56c-.54-1.56-1-2.79-1.56-4.47,6.29-18.65,12.66-37.55,19.05-56.44A8.7,8.7,0,0,1,323.48,60C327.65,56.2,328.8,51,330.52,44.88ZM276.14,246.7l-1.26-.52a14.21,14.21,0,0,0-2.13,2.9c-1.08,2.67-2,5.41-2.81,8.16-.69,2.2-2,4.55-1.68,6.64.81,5.45-1,10.2-3,14.93-1.16,2.74-.54,5.13.27,8.3a16.78,16.78,0,0,0,1.41-2.45c2.91-8.33,5.82-16.64,8.63-25C277,255.4,276.76,251,276.14,246.7Zm-3.37-22-6.23,19.37h10.34c.32-7.29.63-14.37,1-22.2Zm-95.46,63.93c3.54-5.13,3.51-19.6,1-41.56,0-.29-.46-.54-.92-1l-2.76.65C175.53,260.86,176.42,274.75,177.31,288.63Zm42.09,72.55c5.25-4.06,10.24-8.52,15.82-12.07s11.5-6,17.74-9.2c-8.6-1.05-14.58,3.92-21.27,6.87C225.3,349.59,222.51,355.53,219.4,361.18ZM186.13,242.11c-.28-14.52-.76-29-2-44.7C182.45,204.75,183.69,237.51,186.13,242.11Zm.05,32.95c2.84-2.83,1.55-6.3,1.58-9.49a64.13,64.13,0,0,0-.53-10.83c-.5-3.13.32-6.57-1.83-9.43C184,255.3,185.81,265.13,186.18,275.06Zm-4.24-32.5c-.74-15.07-1.42-29.05-2.09-43C178.49,205.81,180.13,237.22,181.94,242.56Zm.1,4.12-1.28,0q.74,16.47,1.49,32.93l1.36-.06Q182.83,263.15,182,246.68Zm104.33-24.29h-1.74v10.79c0,3.64-1.74,7.26.3,11C285.55,236.89,287,229.7,286.37,222.39Zm-7.05,21.49,1.84.15q.52-10.77,1.06-21.56l-1.76-.11C280.56,229.57,279.13,236.66,279.32,243.88ZM227,416.54c-.3-3.05-2.49-4.09-4-6.13-.57,2.3-1,4.09-1.53,6.13Zm-45.7-124.18c-2.8,2.65-3.85,5.59-1.6,9.08C180.21,298.41,180.75,295.39,181.28,292.36Zm115.44-56-1.16,0c.16,2.47-.7,4.94,1.16,7.43Zm-4.92,7.45h.61V231.05h-.61Zm-4.75,36.56.76.07V269.21a13.14,13.14,0,0,0-.74,4.39C287,275.84,287.05,278.09,287.05,280.33ZM261.89,411l7.39-3.92C264.76,406.48,263.05,408.54,261.89,411Zm3.71-118.64,1.29.34c.53-1.69,1.05-3.38,1.58-5.07l-1-.31Zm-82,14.74h.69V299l-.69,0Zm51,34.44.25,1c1-.33,2-.58,3-1A17,17,0,0,0,240,340.2l-.42-.68ZM188.48,463.43l.77-.95L184,460.09l-.52,1.18ZM301.36,244.6l1.17-1.16-2.17-1.92-.77.74Z"/><path d="M262.64,163.68c7.81-6.23,16.05-12.26,27.8-9.42-3.75-3.92-8.21-3.85-11.46-4.36-10.18,1.52-17.76,6.75-25.47,11.64l-.59-1L265,150.83l-5.87.61c-9.29,7.09-13.75,8.63-20.83,7.48,4.64-1.66,9.45-3.37,14.25-5.13a15.61,15.61,0,0,0,2.25-1.52l-16.05,2.62-.18-.88,14.91-4.14-.14-.73h-12c5.77-2.64,9.11-2.9,15-1.41,4.89,1.24,4.89,1.24,10.71-.69l-8.57-3.24c6-1.23,11.13.95,15.79,3.68l9.72.83L282.44,145c4.7,2.57,9.23,5.2,11.95,10.41l2.28-1.76c1.85,2.74.33,5-1,7.25-.33,0-.84,0-1-.14-4.35-5.91-9.86-6.64-16.27-3.81C273.16,159.23,267.89,161.43,262.64,163.68Z"/><path d="M395.63,161.58c-.94-1.6-1.62-3.43-2.86-4.74-3.42-3.62-7.08-7-10.65-10.5a9.47,9.47,0,0,0-1.74-1.5c-7.77-4.32-15-9.77-24.54-9.93-3.92-.07-7.82-1.21-11.73-1.86V130.3c-3.37-1.31-6.78,2.71-10.14,0-6.84,2.1-13.81,3.94-19.46,8.69a27.75,27.75,0,0,0-2.73,3.18l-2.94-1c5.18-5,10.49-9.65,17.08-11.55,10.23-2.95,20.84-5.65,31,2.8a22.48,22.48,0,0,1,12.49,4.94,8.16,8.16,0,0,0,2.58,1.16c4.69,1.62,9.38,3.2,12.93,4.4l5.86,6.48-.58,1.8c3.38,2.58,6.65,5.24,8,10l-2.72.19Z"/><path d="M287,134.13a1.15,1.15,0,0,0,.28.52l.41,1.43c-3.75-1.42-7.11-3.11-10.67-3.93s-7.52-.84-11.64-1.24v2c-8.44-.3-16.65.39-24.22,6h7.89c-12,2.77-20.45,11.13-30.32,18.15l4.18,1.79-8.8,3.39c1.68-5.25,4.53-8.61,9-11.76,6.23-4.37,12.74-8.35,18.28-13.69a18,18,0,0,1,6.29-3.91c4.85-1.73,9.81-3.93,14.83-4.24C271.07,128.09,279.83,128.12,287,134.13Z"/><path d="M372.14,151.21l14,10.65c-2.7.89-4.23-.76-5.66-2-10.46-9-22.51-10.78-35.6-8.2a28.19,28.19,0,0,1-6.68.56c11.25-4.05,22.58-5.48,34-.89Z"/><path d="M395.63,161.58l-.19-.2c3.34,3.58,7.34,6.67,8.73,12.24-3.07.53-6.13,1-9.19,1.59a83.86,83.86,0,0,1-9.5,1.35c3.84-3.79,9.11-3.11,13.93-4.72l-9-13.26C393.46,158.72,394.2,160.75,395.63,161.58Z"/><path d="M360.37,187.26l5-1.53c5.73-9.36,14.78-7.16,23.06-7.36-4.63,3.19-10.17,1.54-15.42,3.35l4.55,1.21-11.09,5.66-5.93-.48Z"/><path d="M278.56,161.68c4.63-1.94,9.21-2.73,13.52,2.34-4.9.83-9.31,1.24-13.52,2.38s-8.2,3-12.73,4.71c2.64-3.22,4.06-4.38,8.69-5.93,3.34-1.11,6.85-1.68,10.18-3.15Z"/><path d="M220,162.37l24,3.88c-.61,2.56-2.12,3.69-4.19,3.31a75.52,75.52,0,0,1-8.65-2.4c-3.8-1.17-7.57-2.44-11.35-3.67Z"/><path d="M356.71,171.2l-22.53-14.57C344.46,158.31,351.05,164,356.71,171.2Z"/><path d="M338,154.81c10.68-.9,20,.34,29.46,6.6Z"/><path d="M350.41,145.38c7-4.37,13.2-3.74,19.56-1.7Z"/><path d="M340.45,146.57A22.47,22.47,0,0,1,359,139.21Z"/><path d="M325.15,140.47q-4,5.42-7.91,10.82l-1.08-.8c2-4.54,4.11-9,8.86-11.55.1-.06.44.06.45.13a5.91,5.91,0,0,1,0,.94A.77.77,0,0,0,325.15,140.47Z"/><path d="M372.27,151.33c-.14-.55-.27-1.1-.51-2.06a19.12,19.12,0,0,1,13.57,6.33l-13.19-4.39Z"/><path d="M331.11,168.16a13.16,13.16,0,0,1,9.76,8.65Z"/><path d="M343.74,170.16l-11.47-6.48C337.57,163.22,341.32,165.51,343.74,170.16Z"/><path d="M329.33,148.37c2.79-6.2,4.93-7.84,10.91-8.44Z"/><path d="M325.15,140.47a.77.77,0,0,1,.35-.46l8-3.71.42.78-8.61,5.69Z"/><path d="M234.77,162.54h-6.06C231,159.32,233,162.6,234.77,162.54Z"/><path d="M263.55,135.78h-7.62v-.35h7.72Z"/><path d="M196.09,323.42l-5.83-9.57.71-.55c3.15,3.35,6.12,6.91,9.51,10s7.43,6,11.46,9.16l-1.46.54-1.76.2-12.81-10Z"/><path d="M302.76,163.36l3.16-.93c-2.77,3.48-4.8,6.06-7,8.89-1.64-2.95,1.13-4.77,1.25-7.06Z"/><path d="M312.27,162.14c-1.21,2.52-2.22,4.59-3.22,6.67l.56.39,10-8.31c-.85,3.44-.89,3.39-6.18,8.58-2.57,2.51-4.94,5.23-7.38,7.84C304.06,171,305.81,166.43,312.27,162.14Z"/><path d="M275.37,360.34a23.37,23.37,0,0,0-9.08-11.42c-5.11-.5-8.26,4.14-13.24,4.68,2.32-1.75,4.51-3.7,7-5.22,5-3.1,9-2.35,12.49,2.4,2.06,2.77,3.7,5.83,5.62,8.7a33.15,33.15,0,0,0,2.72,3.12c.6-1.84,1.07-3.26,1.53-4.68l-.14-.13c1.2,8.48-.33,16.9-.93,25.35V370.42c-5.11-1.23-9.08-3.64-10.77-7.31v-8.35l4.94,5.48c.76,3,3.1,4.61,5.33,6.32A10.12,10.12,0,0,0,275.37,360.34Z"/><path d="M244.78,391l2.87-2L259,394.55C254.68,397.32,249.92,396.31,244.78,391Z"/><path d="M224.18,380.83c-1.13-7.44,1.3-10.24,12.5-14a66.9,66.9,0,0,0-6.74,5.91A86.05,86.05,0,0,0,224.18,380.83Z"/><path d="M259.15,390.93l11-5.53C268.42,390,266.52,391.1,259.15,390.93Z"/><path d="M235.82,391.57c-3.46-.72-4.87-2.71-3.83-7.33Z"/><path d="M222.48,362.61l2.59.42-5.41,6.18c-.81-3.81,1.85-4.89,3-6.71Z"/><path d="M258.2,303.71a22.77,22.77,0,0,1-1.49-3c-2-5.58-2.48-6.35-7.8-10.35,2.18,3.56,5.44,6.73,4.48,12.38-4.63-10.85-14.57-16.35-20.72-26.61,1.8,1.25,2.73,1.85,3.6,2.51s1.71,1.57,2.67,2.18c4,2.58,8.26,4.88,12.14,7.67,5.14,3.68,7.95,8.67,7,15.28Z"/><path d="M213.42,277.46c-2.83-4.48-6.38-8-12.14-9,3.61-1.52,6.53-.38,8.84,1.75A109.83,109.83,0,0,1,222.85,284l-4.2-1.29Z"/><path d="M213.42,277.46l5.23,5.25,3.16,3.64c-5.66-1.29-8.6-5-11.9-8.44l-2.19,1.33-5-3.91,6.17-.59Z"/><path d="M222.3,327.16l-2-3.75.55-.72,7.47,3.83c-6.16,4.09-11.19,2.51-16-4.95,2,1.15,3.43,2,4.85,2.77S219.83,325.81,222.3,327.16Z"/><path d="M203.83,322.23l11.45,6.84C210.35,329.19,206.06,328.26,203.83,322.23Z"/><path d="M240.32,295.08c-5.7.33-6.88-.23-10.72-5.21Z"/><path d="M191.15,281.69c1.46-3.75,3.69-6.14,7.79-7.07A15.67,15.67,0,0,1,191.15,281.69Z"/><path d="M254.19,319.66c.08,3.71-1.24,6.4-4.94,8C249.35,323.76,252.66,322.17,254.19,319.66Z"/><path d="M189.37,297.54V285.65h.49v11.79Z"/><path d="M243.17,455.06h12.75l2-4.76,2.72-1.27-5.17-.82c0-.56-.08-.84,0-.91,4.77-3.62,10.54.61,15.53-1.92.14-.77.27-1.5.5-2.82-6-1.78-12.89.64-19.23-3.59l8.42-1.84-.08-.8H249.51c6-3.23,11.84-2.29,17.34-3.4a22.44,22.44,0,0,0,5-1.18c5.53-2.61,11-5.31,16.4-8.18a70.08,70.08,0,0,0,6.57-4.5c1.39-1,2.8-1.89,4.75-3.2,0,6.73,0,12.82,0,18.91,0,1.13-.49,2.34-.22,3.38,1.34,5.29-.53,9.39-4.33,12.9-.7.65-1.32,1.39-2.65,2.82-2.82.35-6.36,1.05-9.93,1.2-10.9.48-21.8.76-32.71,1.09-2.08.06-4.18,0-6.27,0Zm28.48-16.12.18-.84h-7.68l0,.84Z"/><path d="M188.9,454.17c-2.36-2.23-4.29-3.44-5.32-5.19-1.42-2.38-2.86-5.12-3.05-7.79-.46-6.46-.22-13-.21-19.46,0-1.47.21-3,.36-4.87a13,13,0,0,1,3,1.07c4.27,3.09,8.4,6.39,12.74,9.38,2,1.37,4.4,2.08,6.51,3.27,1.83,1,3.07,2.41.81,4.24l7.46,5.57-7.07,1.14,2.74,2-1.58,3.37,13.42,1.58-5.94,1.41,7.4.94-9.32,2.27v.64h14.23C212.82,458.14,200.69,455,188.9,454.17Z"/><path d="M228.48,434.41l9.9,1-.11,1.12-9.9-1Z"/><path d="M333.09,221.73A65.3,65.3,0,0,1,343.84,255Q338.47,238.37,333.09,221.73Z"/><path d="M304.84,223c-1.19-10,.82-19.07,7.73-26.7C308.13,204.68,306.89,214,304.84,223Z"/><path d="M318.74,206.25q2,11.91,3.95,23.82a48.55,48.55,0,0,1-5.63-23.6Z"/><path d="M361.48,253.39c-3.25-7.9-6.79-16.49-10-24.31C357.47,233.13,362.54,245.28,361.48,253.39Z"/><path d="M352.48,212.78l-20-13.74C341.57,200,347.45,205.09,352.48,212.78Z"/><path d="M339.62,212c7.82,2.76,15.13,6.36,18.94,15.2Z"/><path d="M328.83,237q-3.18-12.54-6.35-25.08l1.28-.31C326.7,219.78,330,227.86,328.83,237Z"/><path d="M316,220.71c-3.16-7.47-3-13,0-20.57v20.57Z"/><path d="M313.44,243.29c-4.73-2.57-8.59-5.81-7.76-12.07Z"/><path d="M321.81,246.36l4,8.58-.89.44-4.4-8.47Z"/><path d="M344,279.48a6.77,6.77,0,0,1-2.29-7.4Q342.89,275.77,344,279.48Z"/><path d="M334.89,262.94l2.84,6.94-1,.42-2.82-6.95Z"/><path d="M300.91,223v-6.79l1.06.11-1.2,6.56Z"/><path d="M247,215.61c2-5.46,5.64-9.73,9.2-14.45l-5.12,3A28.66,28.66,0,0,1,253,201c1.72-2.18,4-3.73,5.35-6.42,1.59-3.12,6.39-3.11,11.86-.56A156.47,156.47,0,0,0,247,215.61Z"/><path d="M234.23,234.54a35.56,35.56,0,0,1-.56-13.46,54.52,54.52,0,0,0,.59-6.27c.26-4.06,2-6.2,6.16-7.52v3.89c-4.9,3.85-6.48,11.11-3.6,18.32l11.58-2.94C246.83,229.84,246.83,229.84,234.23,234.54Z"/><path d="M262.08,204.22c-.3,6-1.46,8.95-5.63,14.43C256.27,214.9,258.58,209,262.08,204.22Z"/><path d="M270,200.6,263.67,214C263,208.17,264.9,204.16,270,200.6Z"/><path d="M267.23,189.51c2.07-.32,4.22-1,6.14,2.4l-6.25-1.09Z"/><path d="M237.21,248.2l-36.36-1.48A119,119,0,0,1,237.21,248.2Z"/><path d="M278.77,312.77v20.56c-.76-6.84-1.41-13.67.13-20.45Z"/></svg>