<svg id="Layer_1" data-name="Layer 1" xmlns="http://www.w3.org/2000/svg" viewBox="0 0 500 500"><defs><style>.cls-1{fill:none;}</style></defs><title>daq</title><rect class="cls-1" width="500" height="500"/><path d="M119.44,122.34c-15-15.66-26-32.88-28.7-55.25,2.31-1,4.34-2.55,6.51-2.79,9.6-1.07,19.23-2.09,28.87-2.55C154.57,60.37,183,59.33,211.5,58c4.39-.2,8.72-1.42,13.1-1.94s8.81-.9,13.23-1.07c5.44-.22,10.9-.44,16.34-.19,13.72.61,27.42,1.5,41.14,2.24,11.9.65,23.8,1.39,35.7,1.82,11.08.4,22.09.8,33.21-1.31,6.17-1.18,12.93.77,20.11,1.37-.33,2.55-.28,4.34-.81,6-8.7,26.39-20.57,50.94-40.9,70.61a13.92,13.92,0,0,0-2.91,4.47c-11,25.85-20.88,52.1-28.21,79.25-7.15,26.51-13.19,53.25-16,80.6-1.87,18.27-3.08,36.61-4.55,54.93-1,11.91,2.36,22.85,8.2,33,4.52,7.87,9.52,15.48,14.31,23.19.85,1.38,1.82,2.68,2.59,4.1,5.37,9.89.18,19.62-11,20.64-1.21.11-2.43,0-3.64,0q-73.7,0-147.39,0a27.92,27.92,0,0,1-8.31-1.11c-7.15-2.26-10.46-8.68-8.2-15.8a34.45,34.45,0,0,1,3.59-6.95c5.49-9.18,11.34-18.16,16.5-27.52,5.28-9.57,7.13-20,6.59-31-1.33-27.25-3.75-54.39-8.61-81.24a569.61,569.61,0,0,0-33.37-115.53c-2.15-5.22-4.35-10.43-6.39-15.7a43.32,43.32,0,0,1-2.25-7.52C112.68,128.4,114.44,124.58,119.44,122.34Zm58.4-18.09c-5.08.9-8.15,6.7-14,5.41L161,114.19l-1-4.28-1.69,4a11.12,11.12,0,0,0,2,2.57c2.64,1.79,5.4,3.4,8,5h12.33c10.74-12.43,10.74-12.43,18-15.46a7.18,7.18,0,0,1-4.76,5.86c-4.58,1.7-6.47,5.83-9.52,9.12,4.42,2.15,5.86-2.06,9-3.58-.09,1.56-.16,2.63-.24,4.1l7.63-.59q10-22.31,20-44.59a15.06,15.06,0,0,0,.78-2.29c.55-2,0-3.56-2.31-4.56L215,71.22c3.1-4.23,3.93-4.36,8.59-1.26a12.19,12.19,0,0,1-1.23,9.26c-2.08,3.89-3.88,7.94-5.66,12-4.24,9.59-8.4,19.22-12.56,28.84-.13.29.05.72.1,1.28h4.45a15.17,15.17,0,0,0,1.3-2.4q2.37-7.77,4.63-15.56c3.2-11,10.23-20,15.24-30.07,1.29-2.59,3.5-3.89,7.25-2.41.73,1.44,2.08,3.26,2.64,5.31,2.94,10.88,5.7,21.81,8.47,32.74,1.24,4.85,3,9.34,7.29,12.84.46-1,.93-1.46.91-1.93-.62-10.93-3.34-21.41-6.51-31.84a100.21,100.21,0,0,1-3-14.72c-.33-2.26.47-4.45,3.6-4.69-1.8,4.06-1.25,8-.17,12.06,2.25,8.57,4,17.25,6,25.9,1.1,4.88,2.15,9.77,3.23,14.72H263c-1.4-7-2.76-13.84-4.11-20.63,4.54,5.49,4.05,12.6,7,19.09.23-1.93.39-3.28.6-5.13l3.3,4.28c-.92-4.3-1.65-7.69-2.38-11.09l.82-.21c2.07,4.54,4.14,9.08,6.19,13.56l4.71-.77L276.94,113c3.82,2.35,3.9,7.15,8.37,8.63-.8-2.17-1.36-3.67-1.93-5.17l.73-.46,5.72,5.21h5.38c-3.81-2.48-7.38-3.92-8.21-8.31l12.52,8.67c2.56-.2,5.7,1.08,8.29-1.7-1.38-5.38-7.24-6.76-10.18-11.54l5.08.85,3.85,4,.88-1.13-4.84-2.8a10.86,10.86,0,0,0-1.86-2.11q-15.67-10.36-31.41-20.63a18.38,18.38,0,0,0-2.14-1L264.07,83,255.16,70.9l.86-.84c3.32,2.85,6.74,5.59,10,8.55,3.69,3.41,7,7.24,10.81,10.51,8.62,7.42,18.82,12.49,28.68,17.92,6.1,3.36,7.82,8,7.57,14.66a98.68,98.68,0,0,0,10.89-.09c3.32-.38,7.08,1.12,10-2.83-.09,1.7-.13,2.46-.18,3.45l2.76.31A82.72,82.72,0,0,0,352,98.17a10.11,10.11,0,0,1,2-2.26c1.71-2.27,4.92-3.91,3.22-7.62l3.08-8L362,77.32l5.8-8.21-1.65-6.71c-1.49-.29-3-.94-4.45-.81-8.62.75-17.22,1.9-25.85,2.51-10.06.71-20.15,1-30.23,1.43a32.39,32.39,0,0,1-4.37-.39l0-1.2h14.81V62.63c-4.55-.59-9.08-1.39-13.65-1.71-6.22-.44-12.46-.4-18.68-.75-8.46-.48-16.92-1.16-25.38-1.68-2.17-.13-4.36,0-6.53,0a9.82,9.82,0,0,1-8,7.15c-3.51.71-7,1.33-11.44,2.15l-6-1.25L224,60.82c-19.28.83-38.22,2-57.18,2.37-23.18.38-46.23,2.47-69.3,4.51A9.86,9.86,0,0,0,94.73,69a32.18,32.18,0,0,0,4.1,15.76c3.93,6.79,7.94,13.55,11.91,20.32,1.17,1.72,2.33,3.45,3.49,5.17l8.84,11.1h10.42c-7.19-5.82-14.23-11.4-19.59-18.8s-9.48-15.12-11.13-24.11c4.4,9.37,10.36,17.64,16.82,25.57l2-1.37,16.46,15.17-5.57-2.37-.47.83,6.69,5.27h17.89c-.73-1.74-1.3-3.09-1.93-4.61l2.41.18c-2.06-5.53,1-9.25,4.37-12.9.66-.72,1.21-1.54,1.81-2.32l3.6-1.88c2.43-.93,5.07-1.51,7.26-2.85,7.57-4.62,15-9.52,22.46-14.29,6.1-3.89,12.23-7.73,18.35-11.6a33.86,33.86,0,0,1-4,4.44c-3.16,2.5-6.44,4.88-9.84,7.06-11.86,7.59-23.8,15.08-35.53,22.5,6.59.28,11.37-5.18,18.49-7.58l-6.46,6.76ZM283.36,235.52c-.44.58-1.12,1.1-1.28,1.75-1.28,5.21-2.4,10.45-3.71,15.65-1.09,4.32-2.37,8.59-3.57,12.88l0,0a33,33,0,0,1,.38-5.37c4.15-17.88,8.39-35.75,12.57-53.62a13.57,13.57,0,0,0,0-3c-9.1,28.3-15.29,57.16-21.08,86.16a13.36,13.36,0,0,1-.28-4.81c1.31-7.33,2.59-14.67,4.2-21.93,4-18.11,8.22-36.18,12.3-54.28a36.74,36.74,0,0,0,.44-4.83l-1.48-.23c-3.48,8.61-4.5,18-8,26.65.68-9.14,4.32-17.72,5.43-27.51l-3.91,1.18c-7.28-2.34-96.12-4.55-102.69-2.3.59,8.42,4.37,16.39,4.75,24.91-2.59-7.68-4.74-15.42-6.87-23.17-.43-1.55-1-2.62-3.28-1.43,6.08,22,12.33,44,15.8,66.67q-5.22-20-10.45-39.89a3.57,3.57,0,0,0-.6,3c2.6,11.2,5.39,22.37,7.83,33.61,1.58,7.27,2.67,14.65,4,22l.14-.11-2.83.48c-5.2-26.45-11.19-52.49-20-77.8a28.31,28.31,0,0,0,.94,7.14c2.58,9.73,1.18,20.46,7.41,29.27a3.75,3.75,0,0,1,.58,1.7c1.74,16.35,5.27,32.54,4.14,49.13a34.11,34.11,0,0,0,.51,4.2c.36,5.64.69,11.28,1,16.93.1,2-.05,4-3.22,5.14-.71-5.05-1.76-9.73-1.92-14.44-.19-5.6.85-11.25.54-16.83-.54-9.45-.6-19-3.55-28.17-1.1-3.41-1-7.18-1.55-10.78-.38-2.59-.72-5.2-1.32-7.75-3.13-13.34-5.77-26.8-10.88-39.62-2-5-3.13-10.41-4.95-15.52q-5.81-16.26-12-32.4a64.65,64.65,0,0,0-4.41-8.5c-2.57-4.55-5.44-9-7.8-13.62-1.14-2.25-2-5,.56-7.54l8.2-1.89a6.53,6.53,0,0,0-4.53-1.17c-1.55.24-3,1.15-4.51,1.57a46.58,46.58,0,0,1-4.87.81c0,2.82-.66,6,.13,8.67,2.21,7.49,2.42,16,9.5,21.32,5.09,9.36,9.16,19.11,11,29.81l-5.25-10.78c3.89,18,12.58,34.33,17.54,52.17-1-.1-1.42-.17-1.82-.17-.11,0-.23.19-.51.42,2.11,9.25,4.24,18.6,6.34,27.85h2.17c.79,5.64,1.45,11.23,2.4,16.78.74,4.33,1.66,8.65,2.8,12.9,1.65,6.1,2.38,12.08,1.16,18.46a24.29,24.29,0,0,0,.79,11.22,99.93,99.93,0,0,1,4.58,32.82,24.27,24.27,0,0,1-.9,4.66c-.43,1.9-1.09,3.76-1.4,5.68-1,6.36-1.32,12.89-3,19.06-2.78,10.29-8.91,19-15.24,27.38-2.82,3.72-5,7.17-5,11.92,0,1.27-1.06,2.53-1.79,4.14.61,4,3,7.33,7,9.77l1.16-1.88c4.22,0,8.06,0,11.89,0,1.41,0,3.1-.35,4.19.27,5.34,3.08,11,1.6,16.52,1.38,11.88-.49,23.73-1.53,35.6-2.16,4.64-.24,9.3-.13,13.94.06,11.89.47,23.78,1,35.65,1.66,6.56.38,13.12,2.24,19.49-1,.82-.42,2-.17,3-.17,4.24,0,8.48,0,12.85,0l1.09,2.1c4.09-3,7.2-6,6.88-11.13h-1.9c-.27-7.83.28-8.17-4.94-15.08a124.56,124.56,0,0,1-17.11-31.93c-1-2.56-1-5.49-1.26-8.27-.31-3.61-.3-7.25-.59-10.87-.27-3.39-1.11-6.76-1.1-10.15a89.45,89.45,0,0,1,3.74-26.28,30.36,30.36,0,0,0,1-14.37A33.41,33.41,0,0,1,292.53,285a23.88,23.88,0,0,0,1.5-5.78c.93-6.59,1.66-13.2,2.59-19.79a31.7,31.7,0,0,1,1.3-4q3.36-11.91,6.67-23.83c.1-.37.2-.92,0-1.17-2.24-3-.35-5.85.57-8.56,1.75-5.16,4-10.15,5.8-15.3,2.32-6.6,4.39-13.29,6.57-19.93l-2.67-.86c2.68-9.42,5.93-18.34,10.8-26.52,4.49-7.56,7-15.86,10-24,1-2.8,1.37-5.48-.62-8-3.62,2.23-6.37-3.87-10.65-.89l7.51,2.9c-.22,1.88,0,3.76-.68,5.3-1.64,3.89-3.11,8-5.64,11.33a59.24,59.24,0,0,0-8.93,17c-6.17,17.69-13.17,35.13-18.53,53.07-4,13.28-7.77,26.77-8.92,40.76a56.49,56.49,0,0,1-2,10.72c-2.31,8.07-2.19,16.37-2.82,24.6a32.78,32.78,0,0,0,.66,6.58c1.18,8.8-.88,17.2-2.56,26.23-4-4-2.05-8.74-3.51-13.05-1.08,8.86-2.11,17.25-3.13,25.64l.12-.18c-.43-1.25-1.31-2.54-1.21-3.76.74-9.45,1.64-18.89,2.6-28.32a23.53,23.53,0,0,1,1.35-4.46l.67.16q.3,2.89.61,5.79c.75-5,.4-10,.33-15a49.63,49.63,0,0,1,.72-7.17c.34-2.58.93-5.14,1.14-7.72.53-6.8.1-13.78,1.5-20.38,3.34-15.73,7.53-31.28,11.34-46.92.5-2,.83-4.1,1.24-6.16l-1.3-.31c-5.72,16.17-9.08,33-13.95,49.51a35.17,35.17,0,0,1,.65-5.92c.54-3.76,1-7.52,1.51-11.28a8.62,8.62,0,0,0,1.22-9.05C284.09,229.43,283.72,232.47,283.36,235.52Zm-6.08-67.3c-42.06,5.8-81.64-3.09-120.27-21.15,5,17.76,9.64,34.59,14.46,51.85,3.07-.14,5.87-.39,8.65-.36,15.56.17,31.11.2,46.66.67,14.52.44,29,1.38,43.54,2a34.83,34.83,0,0,0,4.47-.34c5-15.36,8.21-29.92,7.23-34.58l-3.26,5.3ZM176.72,130c-3.68,0-7.32-.2-10.93,0s-7.19,1-10.55,1.45A167.09,167.09,0,0,0,195.74,147c14.12,3.54,28.33,6.59,43,6,14.3-.56,28.8,1.22,42.85-2.52l-.06-1.31h-8v-.56l9.33-1.68c.74-4.33,2.5-7.94,2.22-12.59l-21.2,5.76-.34-1,2-1.42-5.3-6.85-3.49,1.5-2.25-1c-.3,3.61-.58,6.92-.89,10.62-7.28,1.19-14,2.43-20.84,1.61-4.94-.6-9.77-2.25-14.57-3.66-2.3-.67-4.38-2.07-6.66-2.81-4-1.29-5.94-3.81-5.62-8.11h33.91c-.16,2.52-.29,4.42-.48,7.27-1.11-2.76-1.83-4.57-2.66-6.62l-5.92.29-2.17,4.46-2.21-4.69-2.57,3.39-1.92-2.8H210.53c.36,1.56.63,2.68.75,3.19,5.63,2.54,10.71,4.88,15.84,7.1a9.87,9.87,0,0,0,4.08,1c6.59-.28,13.17-.75,19.53-1.13,1.84-3.78,1.09-6.79,0-10.11l-1.86,1.11L245.06,128c-.41,2.6-.67,4.22-1,6.16l-3.15-6.2c-5.49-.71-10.27-1.47-15.08-1.9-4.62-.42-9.26-.59-13.9-.7-4.85-.12-9.72-.25-14.55,0-4.58.24-9.32-.89-13.74,1.2,5.54.52,11.13.11,16.67,1.9C193.8,138.06,187.05,138.49,176.72,130Zm102.91,32.47c-6.27.16-12,.28-17.7.46-6,.18-12,.69-18,.54-5.82-.13-11.63-.92-18.12-1.47,18.48-1.14,36.54,1.44,54.46-3.34.25-1.59.48-3,.77-4.84l-6.48.68c-17.93,1.88-35.9,1-53.87.66a13.16,13.16,0,0,1-3-.49c-6.44-1.64-12.8-3.69-19.31-4.89A133.25,133.25,0,0,1,169,140.65c-4.83-2.11-9.95-3.53-14.94-5.26l-.69,1.16c1.26,1.12,2.44,2.35,3.8,3.34s3.12,1.31,4.14,2.44c4.57,5,10.5,7.84,16.71,9.83,11.52,3.68,23.08,7.41,34.86,10.09a170.5,170.5,0,0,0,61.38,2.7C276.12,164.69,278.13,164.71,279.63,162.43ZM231.3,98.19c2.84,7.46,1.71,15.32,2.61,23.21l6.78-.3c-.38-4.2-.74-8.11-1.09-12l1-.09,2.13,6.55.38-.17-1.26-11.26a9.84,9.84,0,0,1,2.22,4.45c.51,1.54,1.17,3,1.76,4.54l1.11-.4C243.57,99,241.45,85,234.83,71.89l-3.36,1.45c.34,1.27.64,2.33,1.1,4l-6.08,4.41c-2.86,8.35-6,17.39-9,26.44l.93.4,4.41-7.16.9.45c-2.48,6.31-5,12.63-7.64,19.4l5.84-3.74c.6-1.88,1.24-3.93,1.89-6l1,.18c-.2,3.17-.41,6.34-.64,9.9l7.15-.94ZM368.57,61.85,367.94,63l2.87,3.59c-1,3.09-2.15,6.7-3.41,10.27s-2.6,7.2-4.07,10.74c-1.39,3.35-2.86,6.68-4.56,9.89-1.78,3.38-3.84,6.62-5.83,9.9s-4.11,6.47-6,9.79c-1.78,3-5.75,4.71-6.22,9.57l3.84-2.43a5.34,5.34,0,0,1-1.1,2.79c-.43.69-.77,1.43-1.14,2.14,19.41-18.58,30.2-41.88,38.23-66.77C376.15,59.22,372.37,64.06,368.57,61.85ZM157.43,197c-6.84-20.85-13.45-41-20-61l-6.36-4c-3.35,5.63-3.31,6.17.17,10.23a21.37,21.37,0,0,1,1.77,2.44,164.42,164.42,0,0,1,15.84,31.84c.35.94,1,2.09.76,2.87-1.89,5.42,1.92,9.52,2.63,12.89ZM153,144.63l-1.94.29c.34,1.68.56,3.4,1,5.05q5.24,18.33,10.54,36.63c1,3.49,2,7,3,10.47.49,1.65,1.43,2.37,3.41,1C164,180.2,159.3,162.18,153,144.63Zm136.18,22.14-1.77-.89a23.87,23.87,0,0,0-2.07,3.67c-5.4,15.48-8.17,27.62-7.2,31.88.73-.44,1.8-.71,1.94-1.23C283.19,189.07,286.18,177.92,289.19,166.77Zm5.83-2-1.4-.64a10.63,10.63,0,0,0-1.89,2.71c-3.34,11.25-6.7,22.51-9.53,34.83,1.53-.8,2.34-1,2.45-1.33C288.15,188.46,291.58,176.6,295,164.74ZM246.37,59.63l-.14-1.41L226.6,59.44c.46,1.89.66,3.05,1,4.14.18.51.73.89,1.07,1.28C240.92,63.67,241.62,63.46,246.37,59.63Zm41.4,139.85,1.64.46q5.35-18.42,10.72-36.82l-1.47-.43A369.62,369.62,0,0,0,287.77,199.48ZM305,161.53c-4.51,6.56-12.62,34.49-11.76,39.08C297.34,187.09,301.18,174.31,305,161.53Zm21.84-26-8.78,5.42c-1.17,3.31-2.67,6.1-2.78,9.69,5.88-1.79,7.09-7.49,10.77-10.71C326.72,139.36,326.5,137.83,326.87,135.51Zm-81.26-9.71c8.86,1.64,17.76,1,26.66,1.18l0-1.18Zm46.48,4.63c-4.69,4.59-4.9,10-6.43,15.69l4.21-1C290.1,140.42,293.48,136.38,292.09,130.43Zm-11.24.85-.08-1.4-13.3-.89,2,6.3Zm12.66,13.18a16.21,16.21,0,0,0,4.73-13.24C295.46,133.68,294.08,137.39,293.51,144.46Zm2.25,55.26,1.28.38c2.71-6.26,3.87-13,4.71-19.81Q298.75,190,295.76,199.72Zm8.36-68.45c-3.22,2.71-3.46,6.6-4.81,10.71C303.23,140.08,304.25,137.81,304.12,131.27ZM216.57,431.09v.44h22.65v-.44Zm69.87-211.27c3.9-7,5.14-12.54,4.56-17.08ZM163.16,128.33c-7.95-2.76-8.18-2.78-11.82-1.13C155,129,155.1,129,163.16,128.33Zm139,67.6q2.19-6.35,4.37-12.68C302.6,186.68,302,191.26,302.18,195.93Zm25.44-65.29c-5.6.25-5.76.38-6.69,5.8Zm-12.24,25.67-1.16-.64c-2.93,2.86-3.76,6.54-3.44,10.66Zm-28.49-4.72c-3.74,1.71-4.07,3.67-3.09,6.38C287.43,157.27,287,154.88,286.89,151.59Zm-99.51-18.52c5.91,0,6.17-.16,8.42-4.87ZM296.43,154.8c2.38-1.24,3.3-3.07,2.5-6.09C295.93,150.16,295.91,152.36,296.43,154.8Zm-7,1.13c4.13-2.6,4.13-2.6,1.7-5.67C290.48,152.42,290,154.18,289.42,155.93ZM216.36,113c-3.53,4.26-3.53,4.26-3.18,8.58C214.39,118.3,215.37,115.64,216.36,113Zm85.31,39.65,1,.65c1.17-1.68,2.42-3.33,1.49-6.94C303,149.17,302.34,150.9,301.67,152.63Zm4.8-14.15,1.14.5,1.13-4.52-.84-.23Z"/><path d="M163.29,101.87a68.75,68.75,0,0,0-6.95,3.4c-8,5-13.06,4.94-20.43-.9-2.84-2.25-5.41-4.84-8.78-7.9l-.34,1.42C117.1,92.1,112.07,79.32,116,69.62c8.84-3.85,18.46-3.07,28.12-1.89l-28.35,2.82c.88,2.58,1.17,4.34,2,5.75a86.65,86.65,0,0,0,22.41,25.15c2.92,2.16,5.77,2.69,9,1.26,3.88-1.7,7.7-3.55,11.63-5.12,2.35-.93,5-1.14,7.28-2.22,2.65-1.27,5.76-2.59,7.38-4.82,4.76-6.57,11.33-10.06,18.61-12.81a56.22,56.22,0,0,0,6.42-3.39l-2.8-6.54h-44.3l-.08-1.33a43,43,0,0,1,5.71-.7c14.94.18,29.87.49,44.81.64a57.61,57.61,0,0,0,7.2-.83c1.34,1.88.65,3.3-1,4.48L166.89,100Zm43.65-33.49H201.1l1.63,3.31Z"/><path d="M267.19,85.52v2.6c-3.76-1.14-6.26-3.33-8.94-7.68L264.07,83Z"/><path d="M360.24,80.25l-2.73,3.17c.33-4.59,2.39-7.08,4.46-10.7v4.6Z"/><path d="M110.74,105.06c3,1.4,3,1.4,6.59,6.55l-3.1-1.38C113.07,108.51,111.91,106.78,110.74,105.06Z"/><path d="M353.94,95.91c-1.33-3.55,1.49-5.36,3.22-7.62C358.86,92,355.65,93.64,353.94,95.91Z"/><path d="M254.28,419.64l4.71-4.17-5.62-.9,4.76-1.51-.6-3,11.75-1.93,0-.68c-2.52.13-5,.39-7.54.36a21.24,21.24,0,0,1-7.79-1.46l10.7-3.24-6-.75.62-2.81-7.68-.42-.08-.63,8.66-1.43,0-1-5.71-.58c1.89-2.8,4.63-1.71,7.45-2.9-2.35-.11-3.92-.15-5.48-.27a32.45,32.45,0,0,1-5.42-.58,42.34,42.34,0,0,1-5.52-2.33l4.54-3-6.3-.82c13.5-4.4,27.21-6.34,37.89-16.18,3.08,10.3,9,18.92,14.79,27.67,2.88,4.37,5.32,9,7.92,13.59,2.15,3.76,2.63,7.59.11,11.74a12.56,12.56,0,0,1-10.72,3.64c-4.4-.45-8.87.06-13.31-.06-8.06-.22-16.12-.66-24.19-.86a73.18,73.18,0,0,0-7.8.54c-3.51.3-7,.94-10.32-.73v-1.31h14l.2-1.42-6.77-1.59,5.89-3.87c.18,1.33.24,1.8.37,2.73Z"/><path d="M180.74,391.62l2.86,1-1.46,2.23,2.85,1.73-10.15,3.61c2.72,2.75,6.57.39,10,2.23l-5.47.93-.05.55,11.13.66c-2.28,3.31-6.52,2.13-9.38,5l7.18,5-6.66,2.06c7.42,2.67,15.1,1.92,21.5,6.33l15.9.74c-4.12,3.25-7.75,2.18-11.18,2.16-3.59,0-7.18-.18-10.77-.24-12.3-.21-24.6-.38-36.9-.64a15.42,15.42,0,0,1-4.15-.86c-5.58-1.74-7.79-5.79-5.63-11.29a65.41,65.41,0,0,1,5.63-10.7c6.32-10.09,13.39-19.74,17.65-31,.12-.33.58-.53.92-.82,11.31,8.72,24.73,12,38.38,14.77-6,3.6-12.05.6-16.88,0Z"/><path d="M234.49,376l6.1,2.16c-3.12.29-6.24.79-9.38.85-7.66.14-15.32.17-23,0-2.79-.05-5.58-.69-8.39-.81-8.39-1.17-13.56-7.44-19.47-12.53a7.16,7.16,0,0,1-2.26-4.18c-1.06-8.78-1.89-17.59-2.72-26.4a18.27,18.27,0,0,1,.52-3.73c4,6.09,6.13,16.59,5.2,24,.88,1.29,1.78,2.63,2.7,3.95a32.61,32.61,0,0,0,22.95,14.21c3.69.52,7.37,1.22,11.15,1.85l-1.78,2.36,18.51-1.65Z"/><path d="M275.92,337.54c1-1.85,2-3.7,3.59-6.66,0,6.32.23,11.32-.07,16.29a102.77,102.77,0,0,1-1.8,13.06c-.37,1.91-1.05,4.24-2.42,5.39-5.94,5-11,11.5-19.22,12.76l-11.27-1.31c12.63-4.15,23-9.71,28.19-19.68,1.2-7.75,2.16-13.89,3.12-20Z"/><path d="M207.07,361.1c5.76-2,33.85-2.34,39.87-.85C243.86,361.8,222.08,362.33,207.07,361.1Z"/><path d="M176.85,302.5c3.06,10.92,4.09,22.67,2.66,30.38C177.81,322.84,175.77,312.82,176.85,302.5Z"/><path d="M241.94,207.55l-44.56-1.25,0-1.12c5.69,0,11.39-.13,17.08,0,6.83.2,13.66.57,20.47,1.07a49.68,49.68,0,0,1,6.86,1.4Z"/><path d="M296.27,235.51A84.38,84.38,0,0,1,292.64,262C292.71,253,292.78,244,296.27,235.51Z"/><path d="M160.51,237.45c.87,5.33,1.88,10.64,2.57,16a69.82,69.82,0,0,1,.06,8.38C160.35,255.81,158.87,244.13,160.51,237.45Z"/><path d="M234.63,376.17,251,372.39c-5.2,2.95-10.62,4.72-16.53,3.62Z"/><path d="M241.81,207.69h15.52l0,1-15.35-1.14Z"/><path d="M272.34,279.14,270.87,291c-1.55-4.27-.44-8.11,1.6-11.8Z"/><path d="M274.8,265.8l-2.46,13.34.13.1a22.63,22.63,0,0,1,2.29-13.48Z"/><path d="M186.62,286.45c-.63-3.34-1.27-6.68-1.9-10l1.13-.21,1.88,10Z"/><path d="M183.8,287.54c.52,2.38,1,4.75,1.55,7.13l-1.41.16v-7.4Z"/><path d="M186.58,309.28c-.15-2.07-.31-4.14-.46-6.21l.89,0v6.22Z"/><path d="M258.87,64.3c2.46-2.53,5.14-2.63,7.73-2.31a71.54,71.54,0,0,1,10.06,2c10.75,3,21.54,4.87,32.82,4,6.39-.47,12.88.45,19.32.72,2,.09,4,.21,6,.13,6.32-.27,12.18.45,15.77,8.15.43-2.69.66-4.11,1-6.38,2.44,6.08-2.17,9.7-2.65,14l-5.11,5.21c.66.44.8.6.92.59a16.33,16.33,0,0,0,1.68-.32,39.46,39.46,0,0,1-16.65,16.36c-.69,0-1.3,0-1.89.13-15.65,2-26.43-7.29-37.53-16-5.82-4.6-12-8.75-18.08-13-2.64-1.85-5.57-3.3-8.13-5.24S259.35,68,258.87,64.3Zm14.8,9.83-.18-.17q10.65,8.45,21.29,16.88c1.16.92,2.4,1.73,3.61,2.59l.45-.63L294.42,88l.71-.86,20.37,13.47-7.13-1.16c4.38,4.24,8.42,5.66,13.32,4.12,10.86-3.42,18.21-11,23.66-20.55a10,10,0,0,0,.62-8.7c-4.81-3.78-10.12-2.84-16.15-2.41,1.14.8,1.62,1.11,2.06,1.47s.86.79,1.29,1.2l-.44.92-16.38-2.67L316,70.45c-2.64,0-5.07.12-7.48,0-7-.41-14.12-.54-21.09-1.51-6-.84-11.77-2.7-17.65-4.07a9.61,9.61,0,0,0-8.27,1.41C265.2,69.93,268.48,73.44,273.67,74.13Z"/><path d="M294.39,114.56c-5.34-1.83-8.44-5-11.2-8.31a126.92,126.92,0,0,1-8.8-12.6C282.12,99.05,289.9,104.42,294.39,114.56Z"/><path d="M146.91,88.23c.5-1.26.78-2,1.18-3l-11.15,2.25c7.4-4.86,15.9-6.25,24.43-8l-8.07,4C151.92,87.38,151.92,87.38,146.91,88.23Z"/><path d="M190.38,75.55l-7.21,3.2L183,75.43H170.45A20.67,20.67,0,0,1,190.38,75.55Z"/><path d="M131.35,78.22c5.21-3.19,11-3,16.72-2.94C142.69,77.44,137.23,79.08,131.35,78.22Z"/><path d="M164,83.86c-6.5,4.63-11.66,8.78-18.62,11.19C148.9,90.06,156.12,85.63,164,83.86Z"/><path d="M270.28,93.86c5,3.81,7.33,9.27,9.45,14.86C274.7,104.92,272.47,99.4,270.28,93.86Z"/><path d="M160.32,89.74l15.9-6.37C173,87.74,171.54,88.37,160.32,89.74Z"/><path d="M125,71.74h16.45C136,72.84,130.66,75,125,73.27Z"/><path d="M264.53,104.86c-2.45-5.75-4.48-10.48-6.7-15.69C263.05,93,264.57,96.45,264.53,104.86Z"/><path d="M269,99.19c3.41,3.84,5.08,8.36,5.6,14.18C270.68,108.88,269.88,104,269,99.19Z"/><path d="M127.3,83.78c3.74-1.7,7.54-3,12.51-2C135.45,84.31,131.53,84.91,127.3,83.78Z"/><path d="M146.83,99.6c2.47-3.18,5.93-4.2,10.75-5.35C154.21,98.55,150.55,99.15,146.83,99.6Z"/><path d="M173.52,70.62c-3.72,2.61-6.05,2.51-9.67,0Z"/><path d="M136.71,92.24l5.66-2.89.77,1.46-5.35,3Z"/><path d="M149.55,71.64h7.78c-2.45,1.57-5,2.31-7.72,1.28Z"/><path d="M336.62,112.68l-4.44,4.64-.62-.55,4.21-4.85Z"/><path d="M343.89,104.31l-3.82,4.63-.94-.75,3.78-4.87Z"/><path d="M156.18,74.66l3.5-1,.44,1.13-3.21,1.53Z"/><path d="M170.69,81.12,173.85,80l.48,1.11-3,1.41Z"/><path d="M301.71,118.13c-1-1.17-1.84-2.17-2.83-3.32.91-.34,1.34-.67,1.56-.56C301.82,114.94,303.3,115.67,301.71,118.13Z"/><path d="M251.36,150.51H228.31v-1h23.21Z"/><path d="M195.85,144.43l-8.12-1.22a7.37,7.37,0,0,1,8,1.34Z"/><path d="M195.76,144.55h7.15c-2.44,1.34-4.84,1.67-7.06-.12Z"/><path d="M199.84,97l-5.54,3.68c.28-1.85.47-3.15.67-4.45l-.14.12,7.49-5.6-3.5-1.39,9.57-7.59.86.81-8.52,13.38Z"/><path d="M186.23,106.75c-2.08,1.81-4.06,3.73-6.26,5.38-2.61,2-5.4,3.69-8.11,5.52l-.82-1.12,14.42-12.43.6,2.85Z"/><path d="M194.83,96.3l.14-.12c-5.42,4.29-5.42,4.29-10.12,5.4.91-1,1.5-1.76,2.15-2.41s1.19-1.06,1.74-1.55c-.07-1.29-.14-2.48-.22-3.9l7.26.5Z"/><path d="M195.78,116.13l8.42-14.88C204.65,106.28,202.06,111.1,195.78,116.13Z"/><path d="M177.64,104.43l4-.79c-3.49,4.65-6.89,7.84-12.18,9l8.41-8.39Z"/><path d="M175.56,119.23l7.08-6.63,1,1c-1.19,3.31-3.82,5.22-7,6.57Z"/><path d="M186.06,107l4.44-2.35c.4,3.1-1.79,3.67-3.82,5.09l-.45-2.94Z"/><path d="M217.31,78.49c-.28-2.7-.43-4.14-.57-5.57C219.66,74.13,219.4,75.59,217.31,78.49Z"/><path d="M199.84,97l.89-1H204l-3.11,4.51-1-.33Z"/><path d="M227.26,108.93c-.07-5.28-.43-10.59,1.49-15.63l1.49.16-1.47,15.77Z"/><path d="M240.73,98.83a18.4,18.4,0,0,1-5.41-13.33C238.28,89,239.72,93.12,240.73,98.83Z"/><path d="M229.19,86.11l-2.41,6.1c-1.64-3.76-.15-5.17.93-6.71Z"/><path d="M237.24,113.59c-2.87-2.39-3-4-1.45-6.71a8.63,8.63,0,0,1,1.09,2C237.07,110,237.07,111.17,237.24,113.59Z"/><path d="M365.59,94.31a30.49,30.49,0,0,1,5.86-19.47C373.57,82.82,368.15,88.12,365.59,94.31Z"/><path d="M235.23,62.19c-2.43,1.51-4.58,1.9-6.7-1.79Z"/><path d="M304.76,76.83c9.49.35,18.61,2.56,27.56,5.62C322.72,82.62,313.63,80.26,304.76,76.83Z"/><path d="M326.48,97.17c-6.23-.89-13.59,1.85-18.84-4.86,3.66-.58,6,2.42,9,2.55a3.94,3.94,0,0,0-.1-1.19c-.31-.7-.72-1.35-1.09-2a4.53,4.53,0,0,1,1.64.21C320.22,93.59,323.35,95.39,326.48,97.17Z"/><path d="M326.27,91.18c-8.16.41-14.44-3.75-20.17-9.13Z"/><path d="M286.57,77.45l14.52,7.86C294.82,85.26,289.71,83,286.57,77.45Z"/><path d="M307.84,73.15c-5.16,3.09-10.33,1.12-15.51,0C297.46,70.72,302.62,72.76,307.84,73.15Z"/><path d="M336.82,89.61c-6.14-.28-11.19-.6-16.5-4.55C326.51,85.63,331.5,86.18,336.82,89.61Z"/><path d="M326.82,75.72l12.95,2.75C334.15,80.29,331.53,79.8,326.82,75.72Z"/><path d="M273.67,74.13l-2.73-4.79c4.06,1.53,7.25,3,10.09,7.3L273.49,74Z"/><path d="M295.3,77l4.34,2c-2.73,1.53-3.91.69-4.94-.64Z"/></svg>