<svg id="Layer_1" data-name="Layer 1" xmlns="http://www.w3.org/2000/svg" viewBox="0 0 500 500"><defs><style>.cls-1{fill:none;}</style></defs><title>Untitled-1</title><rect class="cls-1" width="500" height="500"/><path d="M296,135.62l1.65,2.9,1.77-1-1.81-10.76c1.63,1.9,2.41,3.19,3.53,4a17.68,17.68,0,0,0,3.9,1.6c.51,1.71,1,3.44,1.69,5.62H318.5c1.56-7.92,9.32-13.26,8.27-22.48l7.88-3c.17-2.89.3-6.78.65-10.65A101,101,0,0,1,337,90.46c2.9,16.24.12,27.22-7,28.76-2.51,6.45-4.89,12.58-7.37,19h18c-.16-3.58-.3-6.85-.45-10.13l1-.25c1.14,3.51,2.27,7,3.58,11.07,5.21-3.4,1.57-8.59,3.84-12.2l2,1.85c-.39,3.06-.78,6.12-1.21,9.47h11.84c.52-7.91.26-15.62-2.78-23.41-1.51,3,.41,6.45-2.53,8.74-.66-1.4-1.19-2.5-1.6-3.36-1.3,3-2.59,5.87-3.87,8.78.16-6,1-12.06.26-17.94-.63-4.91-3.14-9.58-4.83-14.35-.27-.77-.61-1.51-1.29-3.2,1.56.83,2.37,1,2.59,1.41,3.07,6.11,8.55,10.43,11.95,16.29A36,36,0,0,1,363.72,133c-.11,1.15-.25,2.31-.26,3.47,0,.39.35.79.76,1.66l2.42-3.3c.45,1.06.89,2.07,1.3,3,9.55,3.93,11.2,6.58,10.87,16.87q-1.79,54-3.52,108.1-1.32,39.75-2.75,79.49-1.21,33.81-2.56,67.61a66.92,66.92,0,0,1-1.18,10.38c-1.26,6.31-4.37,9.18-10.72,10.11a58.11,58.11,0,0,1-8.34.53q-103,0-205.92,0c-4.42,0-8.83-.26-13.24-.54-5.29-.34-8.63-3.4-10-8.28a42.51,42.51,0,0,1-1.65-10.26c-.7-20.45-1.12-40.92-1.8-61.38q-1.35-41.14-2.95-82.27c-1.19-31.83-2.46-63.66-3.64-95.5-.27-7.21-.37-14.42-.38-21.63,0-8.57,2.19-11,10.71-12.52,1.1-.18,2.2-.4,4.19-.76Q104.2,91.44,84,46.34C87.6,40,88.84,39.4,96,40.66l41.59,92.79,1.32-.28c-3.65-31.54-7.88-63-11.83-94.5,2.45-5.06,6.7-4.09,11.75-3.49.7,2.07,1.87,4.32,2.16,6.67,3.86,31.11,7.59,62.23,11.39,93.35a21.56,21.56,0,0,0,1.13,3.33h6.74q58.63,0,117.27,0c5,0,9.94-1.57,15-.18,1.89.52,3.77-.27,3.6-2.93ZM306,303c4.28.54,8.35.21,12.27-3.15.24-3.27.5-6.93.76-10.59h.36c.26,3,.53,5.95.8,8.93l1.69-.07c3.53-12.18,1.08-25,3.11-37.37.86-5.22,1.16-10.77-1.21-16-.31,10.19-4.15,20.18-1.32,29.73L320.19,283l-.8-.09c.49-13.66,1-27.33,1.48-40.81l-7.5-8.59-26.48-1.08-5.28,3.29c-1.52,1-3,1.94-4.56,2.92l-.69-1c1.19-1.59,2.37-3.18,3.93-5.29h-9.82c-2,2.6-4.11,5.3-6.31,8.12L268.49,254c8.74,3.82,9.29,11.78,12.28,18.31L277.68,274c1.92,7.13,8.51,11.29,11.85,17.55-5.8-3.24-10.89-7.32-13-13.65-2.87-8.52-7.65-15.81-13-22.86A14.6,14.6,0,0,1,261,241.9c.57-2.15,1.37-4.24,2.33-7.17-5.7,3.66-10.48,7.3-15.77,10a20.6,20.6,0,0,0-11.19,13.43c-1.12,3.95-1.83,8-2.67,11.73,2.33,4.29,4.69,8.06,6.47,12.09s2.89,8.3,4.5,12.39a14.94,14.94,0,0,0,2.87,4.71q9.07,9.59,18.41,18.91a36.62,36.62,0,0,0,7.47,6.18c1.79,1,4.68,1.55,6.5.83,5.58-2.22,11.25-4.65,14.1-10.62,1.8-3.76,4.78-6.1,8.52-7.83,1.44-.67,2.39-2.39,3.56-3.64ZM284.17,156.41c-2,3.88-3.75,7.87-5.95,11.63-3.13,5.34-7.43,10.07-8.74,17.24l7,2.57c3.25-2.61,6-4.73,8.59-6.93,1.23-1,2.8-2,3.41-3.37,4.29-9.5,8-19.16,5.52-30.3h-5.71l-3.66,8.49v-8.48c-5.56-.82-10.93-.68-15.52-2.5-6.85-2.72-13.58-1.81-20.48-1.31l7.59,1.33A17.72,17.72,0,0,1,248,146c-3.47-.16-6.93-.72-10.39-.75-15.11-.12-30.23,0-45.34-.21-3.87-.05-7.73-1.27-11.6-1.36-7-.15-13.95.11-20.92.28-1.79,0-3.57.37-5.54.59a62,62,0,0,0,0,6.58c.83,7.15,1.61,14.32,2.79,21.42a49.09,49.09,0,0,0,3.19,11.3c5.32,12.37,10.92,24.61,16.45,36.89,1,2.29,2.21,4.52,3.39,6.93,10.78,0,21.24,0,31.7,0s21,2.06,32.77.7c-9.08-6-11.93-14.84-15.87-22.84-3.4-6.9-3.23-14.2.3-22.25,3.84,12,5.1,24.89,19.58,30.75-2.07-2.69-3.43-4.21-4.49-5.91s-1.75-3.51-2.78-5.64l14.36,11.26,2.56,2.34c1.52,4.5,5.76,2.49,9.34,4.82-1.61-4.14-2.73-7-4-10.26l5.72,1c-.15-3.29-.29-6.25-.42-9.23l-5.88-2.7,1.9-2c.42-6.89-.89-13.49,1.56-18.09,2.61-4.91,2.4-11.61,8-15.45.12,1.6.2,2.63.28,3.67,2.7-5.89,3.17-12.26,7.69-17.14-.2,2.37-.41,4.74-.67,7.69Zm64.94,71.26V214.91c-4,4.81-4.27,10-3.1,16.54l3.24-4c.14,2.39,1.62,3.11,3.76,3.09,4.16,0,8.31,0,11.86,0l3.56-5.13c-.76,33.08-7.21,64.49-10.36,95.88l3.65,3.9c-.63,2.42-.65,5-1.88,6.81-5.73,8.35-9.43,17.89-16.42,25.58a32.42,32.42,0,0,1-14.82,9.72c-6.65,2.06-13.51,3.49-20.06,5.8-5.68,2-10.87,2-14.6-.46H243c9.29-1.93,18.45-4.56,28-4.19.91,0,1.82.36,2.74.48a51.84,51.84,0,0,0,6.78.82c7,0,14,.18,20.93-.3,15.46-1,29.74-5.55,41.09-16.64C350.1,345.4,356,337,356.36,325.61c.35-10.89.84-21.82,2-32.65,1.36-12.67,3.64-25.24,5.29-37.88.92-7.06,1.35-14.19,2-21.59H349.94c-.46,2.12-.84,3.83-1.24,5.69-1.83-1.63.52-5.13-3.73-5.83l-.26,5.56c4.21,4.75,7.74,8.4,10.89,12.36,3.79,4.76,4.54,10.09,1.81,15.68-1.22,2.5-2.53,5-4,7.76v22c-3.38,1.48-6.2,3.34-9.25,3.84-2.37.38-5-.93-8.28-1.64-.42,2.11-.89,4.52-1.38,7l-3.06-1.33c-6.19,6.47-2.08,14.79-4.65,21.95V309.66l-1.32-.32-2.21,4.26-15.43,8.51,3.7,5.22c-2.61,6.81-9.93,6.69-14.73,10.81l-3,7.1-7.41,3.26.13,1.29,20.14.9c-.88-2.89-1.49-4.86-2-6.53,1.89-9.37,11-8.51,16.68-12.29.16-3.16.31-6.06.46-9h.29l.61,8.31c8.84,1.66,12.1-8,19-8.88,3.6,3.15,2.37,6.06,1.22,8.87-2.87,7-7.52,12.79-13,18a43.23,43.23,0,0,0-3.16,3.86l6.63,1c-13.89.58-27.71,1.49-41.52-.88h17.9l0-1.52c-6.49,0-13,.07-19.47,0-3.69-.06-7.39-.68-11.06-.51-12.51.58-25,1.4-37.52,2.14-2.78.16-5.55.41-8.33.54-6.46.29-13,1-19.37.68-13.42-.72-26.81-2-40.2-3.09-1.85-.19-3.52-1.46-5.4-2.24-5.49-2.27-9.06-6.27-11.39-11.64-2.65-6.13-5.36-12.25-8.33-18.23-3.93-7.88-6.21-15.9-3.6-24.71a12.61,12.61,0,0,0,.49-4.14q-1.4-27.87-2.95-55.73c-.06-1-1.06-1.93-1.63-2.89l-1.29.32v24.57h-1c-.5-8.05-1-16.09-1.52-24.8l-13.25.62c1.07,11.52,1.34,22.27,3.2,32.74,3.5,19.69,6.51,39.35,6,59.43a23.61,23.61,0,0,0,1.4,8.87c5.23,13.64,14.3,23.93,27.88,29.65,9.46,4,19.25,6.86,29.77,6.43a156.39,156.39,0,0,1,16,.43c5.93.37,11.85,1,17.78,1.56a11.85,11.85,0,0,1-5.63,1.48c-12.28.89-24.57-.36-36.79-.75-9.45-.3-18.82-4.53-28.13-7.36a13.69,13.69,0,0,1-6.26-4.24c-5.52-6.84-11.88-13.12-15.11-21.59a12.2,12.2,0,0,0-2.2-4.27c-2.91-2.93-3.33-6.47-2.87-10.18,1-2,2.14-4,2-6a185.73,185.73,0,0,0-1.8-18.7c-3-19.51-5.94-39-7.13-58.75-.28-4.59-.58-9.18-.94-14.71l4.19,3.74,11.4-1.25c0-3.36.11-5.89,0-8.42-.91-18.35-2.18-36.7-2.66-55.06a38.52,38.52,0,0,0-5-18.55,7.19,7.19,0,0,0-1.45-1.41l-4.16.57,3.21-3.56-7.89.73c-4,7-4.43,14.89-3.84,21.82a198.08,198.08,0,0,1,.71,27c-.09,1.83.57,3.68.62,5.53.28,10.33,4.48,20.61.37,31-.39,1,.08,2.29.12,3.46.26,7.2.45,14.42.78,21.62.12,2.54.64,5.05.88,7.58.48,5.06,1.31,10.14,1.22,15.2-.1,6.26-.66,12.45.75,18.7,2.22,9.8,2.49,19.81,2.21,29.84-.2,7.19-.18,14.38,0,21.57.23,11.34,2.12,22.64,0,34.05-.71,3.72.17,7.88.9,11.73,1.47,7.75,3.6,15.41-.07,22.78,3.91,6.95,9.48,9.93,17,9.64a31.63,31.63,0,0,1,6.2.55c2.89.46,5.75,1.61,8.62,1.62,27.23.12,54.47.07,81.7.07q41.89,0,83.79-.06c1.8,0,4.11,1,5.79-1.77-1.59-.24-2.72-.36-3.83-.59-.86-.18-1.7-.51-4-1.21l23.51-1.8.1,1.17-6.92,1a85.74,85.74,0,0,0,16.66.89c6.08-.17,10.56-3,12.11-6.1.73-10.17,1.52-17.76,1.75-25.37.27-8.79-.2-17.61.12-26.4.53-14.37,1.74-28.65,1.2-43.11-.79-20.89,4.23-41.61,3.08-62.6-.06-1.14.45-2.3.48-3.45.29-9.06.59-18.12.76-27.18.08-4.39-.39-8.79-.16-13.16.54-10.44,1.4-20.86,2-31.3.26-4.4.21-8.82.25-13.24.07-7.19.31-14.39,0-21.57-.1-2.38-1.52-4.78-2.65-7-.29-.56-1.81-.5-3.47-.9l5.89,9.38L370.91,156c-2.12-2.09.74-5.61-2.8-6.94-1,4.85-1.67,9.64-3,14.25a87.76,87.76,0,0,0-2.4,14.2,38.66,38.66,0,0,1-8.49,19.6c-1.05,1.3-2.66,2.48-1,5l3.57-4.91a12.42,12.42,0,0,1-1.83,7.28c-3.5,5.06-4.09,10.71-4.38,16.57C350.45,223.26,349.61,225.46,349.11,227.67Zm-129.72,123c0,.41-.1,1,0,1.09,6.38,2.45,12.25.17,18.36-2.12a14.8,14.8,0,0,0,1.68-3.59c1.13-6.15,5.26-10.17,9.63-14.06,2.08-1.86,4.21-3.67,6.3-5.52a22.23,22.23,0,0,0,5.92-9L233.8,306c2.73-2.69,6.08-2.1,9-1.05s5.34,3,8,4.57l.8-1.14-5.14-5.58L231,300.15l3.13-4.53h7.81c-1.55-4.63-2.33-9-4.41-12.69-4.38-7.7-8.61-15.34-9-24.95-5.26-1.55-10.31-3.19-15.44-4.51-5.37-1.38-9.14-6.54-15.79-6.51l-23,23.31-.87-.64c.69-1.48,1.38-3,2.63-5.63l-20.27,20c-.82,2-2,4.94-2.73,6.72-.85,5.87-1.55,10.62-2.38,16.36.08,1.78.22,4.63.42,8.74l15,14.3,1.3-1.43a18.26,18.26,0,0,1,7,9.76l-4.65-2.34-.77,1,9.44,9.66,6.4-4.79,10.43-.55,8.45-4.91c4.33-6.58,7.25-14.72,16.67-16-5.88,3.45-9,9.08-12.42,14.69-2.23,3.64-5.78,6.51-8.89,9.57a28.11,28.11,0,0,1-4.35,2.94l.27,1.29,27.64.8Zm77.74-203.26c.62,4.46.9,8.15,1.68,11.72,1.11,5.07.92,10.49-2.6,13.77-2.84,2.65-4.66,5.76-7.06,8.56-.75.88-1.67,1.61-2.43,2.48-2.55,2.92-5.18,5.79-7.55,8.86-1.83,2.37-3,5.24-5,7.49-2.83,3.28-3.27,6.35-.44,10l3.92-1.18,3.51,2.53,2.87-2-2.29-8.92,1.08-.34c1.49,2.23,3,4.46,4.55,6.79l3.44-1.24c-.61-2.24-1.16-4.24-1.7-6.25,6.52,8.78,6.52,8.78,10.38,10L293.76,201l4.73,1.62,2.64-2.28c5.27,5.88,11.22,10,19.27,11.71,2.83-5.28,2-11,3.17-16.13l-2.52-3.79c0-5.64.16-10.76,0-15.87-.19-4.78-.77-9.54-1.18-14.31l1.09-.09,2.46,7.5c1-7.61,3-15.07,1.23-23l-6.2.3-12,11-3.52,5.9c-.11-7,3-11.12,5.53-16.18ZM129.72,37.51c.33,4.63.18,7.93.86,11.06,1.83,8.42,4.45,16.63,5.3,25.3,1.52,15.47,3.57,30.89,5.37,46.34.69,5.92,1.32,11.84,2,18.13l4.38-.53a12.91,12.91,0,0,0,.24-2.51c-.69-5.05-1.52-10.08-2.14-15.14-.65-5.31-.83-10.68-1.74-15.93-.85-4.87-.43-9.82-.59-14.63-.32-9.29-1.57-18.43-2.48-27.62-.79-8-2-16.07-3.12-24.9Zm3.94,100.56c-1-6.58-36.68-90.43-41.18-96.48l-5.61,3.56,43.88,93.25ZM274.53,229c7.17,2.68,12.74.05,18.55-3l-.87,4.09h20.51c-.41-2.67-.74-4.83-1.22-7.92l4.6,4.23,1.32-1.45,3.95,2.65c-2.89-7.85-6.07-12.52-11.38-16.91-10.86,2.73-19.84,10.28-30.48,14.14C277.79,225.46,276.51,227.28,274.53,229Zm-52.6,4.28v1.35H183l2.82,6.44c8.53-5.62,8.49-5.41,18.9-3.39a38.73,38.73,0,0,0,13.13.58c11.56-1.88,23,.6,34.77.35,2.25-1.81,4.75-3.8,7.43-5.94-11.19-2.42-72.2-3-77.84.07ZM359.2,175.34c2.64-10,5.91-19.14,5.23-29.55l-7.59-.51c-1.27,15.84-2.48,30.95-3.69,46.07l1.41.41,7.19-16.27Zm-16,79.41,6,7.17-7.2,9.6c-.28,1.51-.68,3.71-1.13,6.2l4.4,1.14c6.5-4.73,8.89-11.5,12.08-17.7-2-7.52-7.37-12-13.61-17.21C343.52,248.15,343.38,251.32,343.22,254.75Zm-194-83.18c-1.31,6.21-1.4,12,1.69,17.53,5.41,9.67,10.63,19.44,15.83,29.22,1.61,3,2.92,6.2,4.41,9.39l4.21-.63Zm-4.33,60.82q.82,17.27,1.63,34.51l8.18-4.36c.06-8.25-3-27.35-5.5-31.17v13.8C147.53,240.91,149.83,236,144.93,232.39Zm116.88-6.3-13.37-4.83c-1.87-6.45-7.15-7.88-10-11.47l-9.6-12.31a42.16,42.16,0,0,0,10.46,19.27c1.27,1.35,3.42,2.48,3.73,4,1,4.89,5,6.08,8.86,8.46h16.9c.94-2.08,3.39-3.48,1.85-6.55Zm-105.4,4.84c1.1,15.2,2.16,29.77,3.31,45.57l5.95-6.94c-2.1-13.73-4-26.19-5.91-38.63Zm174.09,2.5-1.87.49c-1.2,18.6-2.4,37.2-3.64,56.37,4.55-2.07,4-5.65,4.3-8.68.47-5.52.58-11.08.87-16.62.47-9.24,1-18.48,1.38-27.72C331.6,236,330.86,234.71,330.5,233.43Zm-191.32-65-1.66-.14a13.27,13.27,0,0,0-.36,2.47q.72,24.64,1.54,49.29a30.89,30.89,0,0,0,.7,5.5,15.44,15.44,0,0,0,1.41,3.11l1.48-.33Q140.73,198.36,139.18,168.41Zm33.41,62.22c3.78,8.46,3.51,17.77,9.3,25.33l5.34-2.31c-1.46-9.07-6.38-16-11.14-23ZM149.48,194.7c2.22,11.7,4.25,22.43,6.31,33.28h3.56C161.14,215.53,156.43,205.32,149.48,194.7Zm-6-14.46c1.09,15.91-.61,32,2.52,47.84C147,212,146.55,196.07,143.49,180.24Zm35.45,77c-4.66-9.18-7.43-18.61-14.17-26.29l.78,11.42,1.14-.43c3.4,5.56,6.79,11.13,10.26,16.83Zm153,11.56,2.2.22c3.07-9.61,1.69-19.77,2.71-29.64.11-1-.86-2.18-1.33-3.27l-1.38.19Q333,252.58,331.9,268.82Zm-9.19,37.58c-13.3,6-13.3,6-20.52,5.76-.47.67-1.05,1.39-1.51,2.19a13.07,13.07,0,0,0-.74,1.93C310,318.06,318.63,314.59,322.71,306.4Zm8.57-116c4.74-5.32,5.44-20.12,1.66-28.21C332.39,171.47,331.85,180.69,331.28,190.36Zm-.86-43-1.58-.1c-.36,5.58-.66,11.16-1.08,16.73-.93,12.25-.95,12.24,1.75,16.53C328.53,169,331.29,158.19,330.42,147.33Zm20.77,26.85c-2.68,4.81-4.2,20.53-2.52,26.1C350.41,196.69,352,180.48,351.19,174.18Zm-8.75,39.88c1.41-7.75,3.54-15.3,2-23.74-.94,1.11-1.68,1.57-1.73,2.1-.57,6.17-1.1,12.35-1.45,18.53C341.2,212,342,213,342.44,214.06ZM256,350l-13.39-3.23-3.95,5.83ZM149.31,146.31c-1.85,5.69-2.39,11.44,3.16,15.93Q150.88,154.28,149.31,146.31Zm184.87,126c-3.63,3.48-3.9,5.32-2,12.29C335.5,280.76,335.12,276.8,334.18,272.3Zm12.43-109.42c-2.11,4.26-3.71,8.59-2.29,14.86C347.39,172.22,346.32,167.41,346.61,162.88Zm-6.33-10.11-.87,0V171l.87,0ZM144.57,169c.51-4.71,1-8.48-2.34-11.55C142.75,161,141.17,165,144.57,169Zm205.82-3c3.22-6.82,3.22-6.82.7-10.91C350.83,159.11,350.61,162.5,350.39,165.9Zm-12.71,48.32c.52-3.58.95-6.55,1.38-9.53C334.84,207.34,335.7,210.43,337.68,214.22Zm1.22,36,2,.1c-.68-3.16,3-6.53-1.51-10.5C339.2,243.94,339.05,247.1,338.9,250.25Zm10.21-47.8c-2.36,2.69-2.81,4.8-1.77,8.35C349.38,207.87,350.8,206,349.11,202.45Zm-7.85,28.72c1.36-2.71,2.37-4.54.78-7.66C340.21,226,338.86,227.8,341.26,231.17Zm-3.13,33.31c2.74-4,2.73-5.52,0-9.62Zm-9.67-73.37c-2.62,3.39-3.7,5.58-.93,8.32ZM339,272.23c-3.19,3-2.6,5.34-1.64,8.44C340.19,278.24,339.84,275.87,339,272.23Zm-7.51-74.51v6.85C333.7,200.66,333.7,200.66,331.5,197.72Zm7.59-1.47-1.83-.23L337,200l1.28.14C338.57,198.82,338.83,197.54,339.09,196.25Z"/><path d="M296.14,135.46c-2.24-3-4.47-6.07-6.94-9.42,5.84,2.17,6.39,3,6.75,9.58Z"/><path d="M255.6,213.71l-2.58-4,.75-.94,9.64,6.55-.35,1.18-4.9-.47Z"/><path d="M257.08,420.67l8.37-3,0-.86c-.85-.07-1.71-.1-2.54-.23-1.06-.17-2.09-.43-3.12-.65,6.29-1.5,12.35-3.24,18.52-4.33,6.32-1.1,12.75-1.56,19.07-3.25l-17.24,1.11-.17-1.55c4.94-3.65,11.24.17,16.6-3.26l-9.95-1.81,15.66-4.62c-7.85-2.72-15.51,1.24-23-1.62l21.87-3c-5.74-3.4-11.66-1.91-17.5-1.14l-.15-1.35,26.81-5.57-.07-.8c-1.26-.15-2.51-.34-3.77-.42s-2.27,0-4.58,0l2.64-2.48-4.3-.62c19-4.87,37.73-9.72,53.08-25.81.15,1.08.28,2,.45,3.17l8.85-7.1a2.11,2.11,0,0,1,.1.75c-.3,13.71-.31,27.44-1.06,41.12-.29,5.22-2.16,10.38-3.56,15.5-1,3.81-4,5.43-7.75,6a301.66,301.66,0,0,1-43,3.5c-10.39,0-20.77,1.71-31.17,2.49-6.24.46-12.51.6-18.77.89ZM318,396.46l.11-1.09-13.38-1.64-.16,1.52Zm-8,5.22c-3.39-.11-7.05-1.74-11.39,2.27ZM284.29,417c0-.56-.07-1.13-.11-1.7l-4.28.64.2,1.36Zm25.51-8,.19-.91h-7.12V409Z"/><path d="M195.26,383.87c-2.4,2.29-5.2,1-7.9.92-4.85-.11-9.71,0-14.41,0l-3.21,5.3c.84,1.44,3,3.86-1.81,6.39L194.2,400v.58H168.76l-.17,1.33,7.45,2.08c-.41,1.07-.79,2.06-1.5,3.89l10.12,2.48-.14.92-8,.77,7.19,4.25h11.86l0,1.07c-4.92.27-9.84.56-14.76.79-14,.68-27.82-1.31-41.62-3.35-3.54-.53-6.3-2.15-7.4-5.54a98.41,98.41,0,0,1-3.44-13.41c-.55-3.17-.17-6.5-.29-9.75-.32-8.57-.71-17.14-1-25.71-.1-2.76,0-5.54,0-8.19,2.82,1.77,5.35,3.47,8,5,1.55.88,3.59,1.09,4.87,2.21,11.75,10.21,25.73,15.58,40.6,19.11l10,2.37-5.74,1-.12.73,10.83,1.51Zm-16-1.7c-4.08-2.44-7.72-3.43-12.81-1.35C171.05,383.05,174.91,382.29,179.3,382.17Z"/><path d="M120.14,147.63c1.48,25.6,2.88,49.87,4.29,74.14l-1.52.13c-.94-9.68-2.12-19.34-2.76-29-.69-10.65-.83-21.34-1.33-32a25.13,25.13,0,0,0-1.16-5.37C117,153.16,116.78,151,120.14,147.63Z"/><path d="M203.33,418.8c-.22-1.38-.36-2.25-.55-3.4l-5.41-1.09c5.54-2,10.23-5.2,15.71-2.42,5,2.54,10.34,3.2,15.88,4.06H211.38l0,1.05,23.18,2.18-.07,1.07Z"/><path d="M369.9,159.23A350.63,350.63,0,0,1,367,218.89C365.14,211.84,367.11,170.37,369.9,159.23Z"/><path d="M271.14,376.77H252.56C257.75,373.46,261.59,373.58,271.14,376.77Z"/><path d="M148.23,421.62l21,1.75C162,425.78,155.05,423.55,148.23,421.62Z"/><path d="M292.22,383.08c-6.15.91-12.29,2.44-18.47.38A56.7,56.7,0,0,1,292.22,383.08Z"/><path d="M295.83,376.81l-12.14.64,0-1.18H295.8Z"/><path d="M276.66,387.1h10.78l0,.65H276.68Z"/><path d="M219.78,376.12H230.4V377H219.79Z"/><path d="M249.31,383.05H260l0,.85H249Z"/><path d="M140.59,261.54v8.89l-.72,0-.45-8.84Z"/><path d="M181.2,387.24h10.58l0,.76H181.19Z"/><path d="M195.43,384.05c3.83-2.5,7.84-1.41,11.85-.18h-12Z"/><path d="M191.41,424.28l-8.31,1.49-.18-1.06,8.35-1.31Z"/><path d="M188.18,407h4l.06,1-3.92.38Z"/><path d="M251.29,199.61c-.47.33-1.22,1-1.36.94-4.93-3.67-9.94-7.26-14.61-11.25-1.37-1.16-1.78-3.45-2.1-5.62,4.05,3.33,9.13,5,12.09,9.62,1.59,2.46,4.07,4.35,6.15,6.5Z"/><path d="M251.46,199.8v-2.65c4.66.94,8.39,3.18,12.5,6-5.22.88-8.71-2.13-12.67-3.5Z"/><path d="M197.46,258.39q7.17,8.92,14.35,17.84a35.28,35.28,0,0,1,7.92,17.51c.51,3.75.09,7.62.09,11.65-3.21-2.46-4-6.38-4.47-9.94a46.48,46.48,0,0,0-11.11-24.19c-3.06-3.62-5.13-8.08-7.65-12.16Z"/><path d="M174.1,313c-.17,3-.27,5-.38,7.06-3.83,1.42-7,.12-9.82-2.66-4.13-4-6-8.75-5.64-15.67C161.47,308.92,168.09,310.53,174.1,313Z"/><path d="M193.54,275.37c-.4-3.11-.66-5.09-1-8L207.77,292c-8.13-4.25-16.49-13.22-18.68-20.4Z"/><path d="M239,311.73v7.62l-14.15,12.37C228.38,324.7,230.37,316.64,239,311.73Z"/><path d="M229.88,271.59,239,292.05C229.49,289.27,225.18,280,229.88,271.59Z"/><path d="M245.26,322.53l-10.48,17.73-3.58-1.4C234.76,330.44,240.17,324.23,245.26,322.53Z"/><path d="M228.39,295q-5.76-13.26-11.51-26.53C223.7,276,228.66,284.38,228.39,295Z"/><path d="M224.73,314l-17.28,10.46C208.42,319.06,209.23,318.49,224.73,314Z"/><path d="M177.25,322.31c1.14,3.93,6.51,6.05,5.3,11.46C176.61,331.47,177.36,326.63,177.25,322.31Z"/><path d="M224.44,260.66l-2.68,3.39c-1.18-.21-1.48-.17-1.62-.29-1.93-1.77-3.83-3.55-6.23-5.79C218.06,257.15,221,258.32,224.44,260.66Z"/><path d="M214.35,343.77c5.91-.64,11-.79,16.47,1.35C225.06,347,221.28,346.74,214.35,343.77Z"/><path d="M171.5,283.68c-2.79,3.56-5.57,7.13-9.18,11.75C162.66,288.41,165.88,285.07,171.5,283.68Z"/><path d="M226.57,301.25l5.78,5.49c-.7,2-1.27,3.63-1.9,5.41-.66-.37-1.13-.46-1.21-.7-1.08-3.1-2.11-6.22-3.16-9.34Z"/><path d="M278.61,314l4.4-4.61c-2.68-2.73-6-4.81-7.26-7.77s-.26-6.75-.26-10.93c3.66,4.56,6.93,8.49,10,12.57a6.64,6.64,0,0,1,1.26,3.86c-.1,4.53-3.39,6.85-6.79,9-3.23,2-6.4,2.21-10.38-1l5.53.46c-.14-.65-.1-1.14-.31-1.29-2.26-1.64-5.78-2.25-5.11-7Z"/><path d="M305.79,273.77l7.55,6.37-5.11,2.6-.9,2.9c-5.66,1.53-11.18-6.95-10.63-16.3l6.51,8.63c.66-.79,1.05-1.19,1.35-1.64S305,275.53,305.79,273.77Z"/><path d="M275,249.16c8.84,5.06,12.64,12.19,13.75,21.24A44,44,0,0,1,275,249.16Z"/><path d="M244.58,269.82v-6.35c4.25-3.66,4.25-3.66,10-2.27-1.33,3.2-2.63,6.31-4.14,9.92l-6.07-1.54Z"/><path d="M244.4,269.58c.87,4.42,1.73,8.84,2.56,13.06a16.36,16.36,0,0,1-8.42-13.1c-.11-2.08.33-3.68,3.28-3.78l2.76,4.06Z"/><path d="M306.13,302.86c-8.47-.28-13.92-2.72-20-9.29,4.28.25,6.94,2.85,10,4.29,3.34,1.56,6.54,3.43,9.81,5.17Z"/><path d="M309,170.61a35.79,35.79,0,0,1,5.67,26.83Z"/><path d="M302,186.28l6.63,13.65C303.58,196.78,301.06,192.39,302,186.28Z"/><path d="M283.63,174.64l7.26-16C291.36,165.23,289.48,170.81,283.63,174.64Z"/></svg>